<?xml version="1.0" encoding="utf-8"?>
<!-- Generator: Adobe Illustrator 22.1.0, SVG Export Plug-In . SVG Version: 6.00 Build 0)  -->
<svg version="1.1" id="Layer_1" xmlns="http://www.w3.org/2000/svg" xmlns:xlink="http://www.w3.org/1999/xlink" x="0px" y="0px"
	 viewBox="0 0 150 150" style="enable-background:new 0 0 150 150;" xml:space="preserve">
<style type="text/css">
	.st0{fill:#FFFFFF;}
	.st1{enable-background:new    ;}
	.st2{fill:#232323;}
</style>
<g>
	<path class="st0" d="M47.1,62c0.1-3.3,1.6-5.4,5.1-5.4c3.2,0,5.4,2.6,5.4,8.2c-0.9,0.7-2.5,2.9-4.5,3.3C49.6,68.9,47,65.8,47.1,62z
		"/>
	<path class="st0" d="M89.2,62.5c0-3.5,2.5-5.4,5.5-4.9c2.2,0.4,4.1,2.7,5.5,3.7c-0.7,5.1-2.3,7.9-6,7.9
		C90,69.2,89.3,65.8,89.2,62.5z"/>
	<path class="st0" d="M43.5,95.5c-4.1-4.5-6.2-9.8-4.6-16.1c6.7,14.1,18.8,18.9,32.9,20.1c14.3,1.2,25.9-4.4,34.4-16.4
		c1.2,4.9-0.7,10.5-4.9,15c-6,6.5-13.8,9.2-22.3,9.8C65.5,108.8,53.1,106,43.5,95.5z"/>
	<g class="st1">
		<path class="st2" d="M111.1,22.8C103,16.9,93.7,12.5,84.6,8c-1.7-0.9-6.2,0-6.7,1.2c-1.9,4.3-5.4,3-8.4,3.4
			c-3.6,0.4-7.3,0.8-10.9,1C43.4,14.3,31.3,19.9,23.8,34c-8,15.4-11.6,31.8-11.8,50.3c0.1,2.4,0.1,6.1,0.5,9.7
			c0.3,2.9,0.8,5.7,1.4,8.5c3.2,15.3,10.9,27.6,26.6,34.5c0.3,0.1,0.6,0.3,0.9,0.4c16.6,6.9,33.6,6.4,50.3,0.7
			c24.3-8.2,41-24,45.2-50.3C141.2,61.1,133.2,38.8,111.1,22.8z M106,122.3c-15.7,13.2-34.4,12.8-53.2,8.5
			c-19.3-4.5-29.9-17-32.2-36.6c-0.5-4.6-0.8-9.3-1.2-13.9c-0.2-0.1-0.4-0.1-0.6-0.2c1.5-8.7,2.2-17.6,4.7-26
			c7-24,17-30.6,41.6-34.7c8.9-1.5,16.6,1.4,24.3,5.6c2.5,1.3,5.8,1,8.8,1.5c1.7,0.3,3.6,0.4,5.1,1.2c15,7.6,23.5,20.1,25.3,36.6
			C131.2,87.3,123.9,107.3,106,122.3z"/>
		<path class="st0" d="M128.7,64.3c-1.8-16.4-10.3-29-25.3-36.6c-1.5-0.8-3.4-0.9-5.1-1.2C95.4,26,92,26.3,89.5,25
			c-7.7-4.2-15.4-7-24.3-5.6c-24.5,4-34.5,10.7-41.6,34.7c-2.5,8.4-3.2,17.3-4.7,26c0.2,0.1,0.4,0.1,0.6,0.2
			c0.4,4.6,0.7,9.3,1.2,13.9c2.3,19.6,12.9,32.1,32.2,36.6c18.8,4.3,37.5,4.7,53.2-8.5C123.9,107.3,131.2,87.3,128.7,64.3z
			 M94.7,57.6c2.2,0.4,4.1,2.7,5.5,3.7c-0.7,5.1-2.3,7.9-6,7.9c-4.2,0-4.9-3.4-4.9-6.7C89.2,59,91.8,57.1,94.7,57.6z M52.2,56.6
			c3.2,0,5.4,2.6,5.4,8.2c-0.9,0.7-2.5,2.9-4.5,3.3c-3.5,0.7-6.1-2.4-6-6.2C47.2,58.8,48.7,56.6,52.2,56.6z M101.3,98.1
			c-6,6.5-13.8,9.2-22.3,9.8c-13.5,0.9-25.9-1.9-35.4-12.3c-4.1-4.5-6.2-9.8-4.6-16.1c6.7,14.1,18.8,18.9,32.9,20.1
			c14.3,1.2,25.9-4.4,34.4-16.4C107.4,88,105.5,93.5,101.3,98.1z"/>
		<path class="st2" d="M101.3,98.1c-6,6.5-13.8,9.2-22.3,9.8c-13.5,0.9-25.9-1.9-35.4-12.3c-4.1-4.5-6.2-9.8-4.6-16.1
			c6.7,14.1,18.8,18.9,32.9,20.1c14.3,1.2,25.9-4.4,34.4-16.4C107.4,88,105.5,93.5,101.3,98.1z"/>
		<path class="st2" d="M100.2,61.3c-0.7,5.1-2.3,7.9-6,7.9c-4.2,0-4.9-3.4-4.9-6.7c0-3.5,2.5-5.4,5.5-4.9
			C96.9,57.9,98.8,60.3,100.2,61.3z"/>
		<path class="st2" d="M57.6,64.8c-0.9,0.7-2.5,2.9-4.5,3.3c-3.5,0.7-6.1-2.4-6-6.2c0.1-3.3,1.6-5.4,5.1-5.4
			C55.4,56.6,57.6,59.2,57.6,64.8z"/>
	</g>
</g>
</svg>
