<?xml version="1.0" encoding="utf-8"?>
<!-- Generator: Adobe Illustrator 22.1.0, SVG Export Plug-In . SVG Version: 6.00 Build 0)  -->
<svg version="1.1" id="Layer_1" xmlns="http://www.w3.org/2000/svg" xmlns:xlink="http://www.w3.org/1999/xlink" x="0px" y="0px"
	 viewBox="0 0 1024 860" style="enable-background:new 0 0 1024 860;" xml:space="preserve">
<style type="text/css">
	.st0{fill:#451B82;}
	.st1{fill:#5A24A7;}
	.st2{fill:#723EBF;}
	.st3{fill:#FFFFFF;}
</style>
<g>
	<path class="st0" d="M885.4,592.7L527,821.9c-27.7,17.7-63.6,16.2-89.7-3.9L133,583.4c-42-32.3-40.2-96.2,3.5-126.2L459,236
		c26.3-18,60.9-18.3,87.4-0.6L886.7,462C933.6,493.2,932.9,562.3,885.4,592.7z"/>
	<path class="st1" d="M885.4,498.2L527,727.4c-27.7,17.7-63.6,16.2-89.7-3.9L133,488.9c-42-32.3-40.2-96.2,3.5-126.2L459,141.5
		c26.3-18,60.9-18.3,87.4-0.6l340.3,226.6C933.6,398.7,932.9,467.8,885.4,498.2z"/>
	<path class="st2" d="M885.4,396.2L527,625.4c-27.7,17.7-63.6,16.2-89.7-3.9L133,386.9c-42-32.3-40.2-96.2,3.5-126.2L459,39.5
		c26.3-18,60.9-18.3,87.4-0.6l340.3,226.6C933.6,296.7,932.9,365.8,885.4,396.2z"/>
	<path class="st3" d="M681.2,319.1c-3.2-3.8-6.9-7.3-10.8-10.4c-29.5-23-62.7-28.3-98.5-19.6c-8.7,2.1-17.1,5.7-25.7,8.6
		c0.3-0.5,0.5-0.9,0.8-1.3c13.3-17.6,13-36.2-1.7-52.7c-16.4-18.5-38.3-26.1-62.1-28.2c-28.9-2.5-56.1,4.4-80.4,20.2
		c-33.5,21.8-66.5,44.4-99.6,66.7c-1.1,0.7-2,1.6-3.5,2.8c2,1.5,3.7,2.8,5.4,4c32.9,22.1,65.8,44.2,98.7,66.3
		c47.4,31.8,94.9,63.6,142.3,95.5c2.4,1.6,4.3,3.1,7.5,0.9c33.4-22.6,66.9-44.9,100.2-67.6c12.3-8.4,23.2-18.5,31.2-31.3
		C696.5,354.5,695.2,335.5,681.2,319.1z M436.1,354c-24.3-16.6-48.8-33-73.2-49.4c-0.7-0.5-1.2-1-3-2.4c25.3-16.2,49.1-33,74.5-47.1
		c21.8-12.2,45.2-12.5,67.4,1c3.7,2.2,7.2,4.9,10.3,7.9c10,9.7,11.3,21.1,4,33c-6.7,10.9-16.6,18.5-26.9,25.6
		c-15.3,10.4-30.6,20.6-45.9,31C440.8,355.1,438.9,356,436.1,354z M644.1,363.5c-5.1,10.3-13.4,17.8-22.6,24.2
		c-21.3,14.8-42.9,29.2-64.5,43.6c-1.3,0.9-4,1.1-5.2,0.3c-28-18.6-55.8-37.4-84.6-56.8c7.3-4.9,13.9-9.4,20.5-13.8
		c16.8-11.1,33.3-22.6,50.5-33c17.8-10.8,37.2-17,58.4-15c17.8,1.7,32.9,9.2,44.5,22.9C648.2,344.3,648.9,353.8,644.1,363.5z"/>
</g>
</svg>
