<?xml version="1.0" encoding="utf-8"?>
<!-- Generator: Adobe Illustrator 22.1.0, SVG Export Plug-In . SVG Version: 6.00 Build 0)  -->
<svg version="1.1" id="Capa_1" xmlns="http://www.w3.org/2000/svg" xmlns:xlink="http://www.w3.org/1999/xlink" x="0px" y="0px"
	 viewBox="0 0 512 512" style="enable-background:new 0 0 512 512;" xml:space="preserve">
<style type="text/css">
	.st0{fill:#FFFFFF;}
</style>
<g>
	<path class="st0" d="M244.9,201.8c-31.1-56.5-59.7-93.2-59.7-93.2c-45,21.7-78.6,63.4-89.2,113.5h0C96,222.1,170,223.3,244.9,201.8
		z"/>
	<path class="st0" d="M364.4,133.7L364.4,133.7c-28.8-25.6-66.8-41.2-108.4-41.2c-13.1,0-25.8,1.5-38.1,4.5c0,0,29.9,34.7,61.3,93.1
		C311.9,177.2,342.4,159.1,364.4,133.7z"/>
	<path class="st0" d="M156.9,386c27.5,21,61.8,33.5,99.1,33.5c22.1,0,43.3-4.4,62.5-12.4c-6.2-43.1-19.1-85.2-34.6-123.5
		C229.7,300.4,184.4,337.5,156.9,386z"/>
	<path class="st0" d="M272.2,256.2c-4.2-9.3-8.6-18.4-12.9-27.1c-42.1,13.3-96.8,22.9-166.7,22.6h0c0,1.4-0.1,2.8-0.1,4.3
		c0,42.1,15.9,80.5,42.1,109.5C165.5,314.3,214.2,275,272.2,256.2z"/>
	<path class="st0" d="M0,50v412c0,27.6,22.4,50,50,50h412c27.6,0,50-22.4,50-50V50c0-27.6-22.4-50-50-50H50C22.4,0,0,22.4,0,50z
		 M256,449.8C149,449.8,62.2,363,62.2,256S149,62.2,256,62.2c107,0,193.8,86.8,193.8,193.8S363,449.8,256,449.8z"/>
	<path class="st0" d="M317.8,275.9c12.7,35,23.3,74.1,29,116c36.4-24.4,62.5-63,70.3-107.9c-21.2-6.8-43.9-10.4-67.4-10.4
		C338.9,273.6,328.2,274.4,317.8,275.9z"/>
	<path class="st0" d="M383.1,153.2c0,0-24.1,35.2-90.3,63.5c4.7,9.8,9.4,20.1,13.9,30.9c13.9-2.4,28.3-3.7,42.9-3.7
		c24.2,0,47.6,3.4,69.8,9.8C419,215.7,405.4,180.8,383.1,153.2L383.1,153.2z"/>
</g>
</svg>
