<?xml version="1.0" encoding="utf-8"?>
<!-- Generator: Adobe Illustrator 22.1.0, SVG Export Plug-In . SVG Version: 6.00 Build 0)  -->
<svg version="1.1" id="Layer_1" xmlns="http://www.w3.org/2000/svg" xmlns:xlink="http://www.w3.org/1999/xlink" x="0px" y="0px"
	 viewBox="0 0 1247.4 1015.4" style="enable-background:new 0 0 1247.4 1015.4;" xml:space="preserve">
<style type="text/css">
	.st0{fill:#0A1529;}
	.st1{fill:#FF5F91;}
</style>
<g>
	<g>
		<path class="st0" d="M353.1,3.3v453.4H249.4V276.6H106.9v180.1H3.3V3.3h103.6v173.6h142.5V3.3H353.1z"/>
		<path class="st0" d="M715.8,356.9v99.8h-285V3.3h281.8V103H534.4v75.1h161.9v98.5H534.4v80.3H715.8z"/>
	</g>
	<g>
		<path class="st0" d="M268.9,902.9v99.8H3.3V549.3h103.6v353.7H268.9z"/>
		<path class="st0" d="M579.8,902.9v99.8H314.2V549.3h103.6v353.7H579.8z"/>
		<path class="st0" d="M579.8,776c0-133.4,105.6-235.8,235.8-235.8c130.2,0,235.8,102.3,235.8,235.8s-105.6,235.8-235.8,235.8
			C685.4,1011.8,579.8,909.4,579.8,776z M947.7,776c0-81-58.3-134.7-132.1-134.7c-73.8,0-132.1,53.8-132.1,134.7
			s58.3,134.7,132.1,134.7C889.4,910.7,947.7,857,947.7,776z"/>
	</g>
	<circle class="st1" cx="1191.3" cy="959.3" r="52.4"/>
</g>
</svg>
