<?xml version="1.0" encoding="utf-8"?>
<!-- Generator: Adobe Illustrator 22.1.0, SVG Export Plug-In . SVG Version: 6.00 Build 0)  -->
<svg version="1.1" id="Layer_1" xmlns="http://www.w3.org/2000/svg" xmlns:xlink="http://www.w3.org/1999/xlink" x="0px" y="0px"
	 viewBox="0 0 3331.9 4291" style="enable-background:new 0 0 3331.9 4291;" xml:space="preserve">
<style type="text/css">
	.st0{fill:#0A1529;}
	.st1{fill:#FF5F91;}
</style>
<path class="st0" d="M1665.9,0C747.3,0,0,747.3,0,1665.9c0,458.7,185,888,512.8,1201.6c27.3-93.4,65.9-183.2,115-267.2
	c-230.3-254.9-359-584.8-359-934.3c0-770.3,626.7-1397,1397-1397s1397,626.7,1397,1397c0,349.5-128.6,679.4-359,934.3
	c49.1,84.1,87.7,173.8,115,267.2c328-313.5,513-742.8,513-1201.6C3331.8,747.3,2584.5,0,1665.9,0z"/>
<path class="st0" d="M2621,2684.6c-111.5-204.1-285.1-367.3-495.6-466.1c-143.8-67.3-300.7-102.1-459.5-101.9
	c-94.1-0.5-185.6-30.2-262.1-85c-113.8-81.8-188-215.2-188-365.7c0-248.2,201.9-450.1,450.1-450.1s450.1,201.9,450.1,450.1
	c0,150.5-74.2,283.9-188,365.7c98.4,22,193.5,56.4,283.3,102.3c108.2-125.9,173.6-289.4,173.6-468c0-396.4-322.5-719-719-719
	s-719,322.5-719,719c0,178.6,65.4,342.1,173.6,468c26.2,30.5,55,58.8,85.9,84.6c-210.5,98.8-384.1,262.1-495.6,466.1
	c-86.9,159.2-132.4,337.7-132.2,519.1c0.1,599.5,487.8,1087.3,1087.3,1087.3s1087.2-487.7,1087.2-1087.2
	C2753.3,3022.4,2707.9,2843.8,2621,2684.6z M1665.9,4022.1c-451.2,0-818.3-367.1-818.3-818.3s367.1-818.3,818.3-818.3
	s818.3,367.1,818.3,818.3S2117.1,4022.1,1665.9,4022.1z"/>
<circle class="st1" cx="3145.4" cy="4104.5" r="186.5"/>
</svg>
